<?xml version="1.0" encoding="iso-8859-1"?>
<!-- Generator: Adobe Illustrator 17.1.0, SVG Export Plug-In . SVG Version: 6.00 Build 0)  -->
<!DOCTYPE svg PUBLIC "-//W3C//DTD SVG 1.1//EN" "http://www.w3.org/Graphics/SVG/1.1/DTD/svg11.dtd">
<svg version="1.1" id="Capa_1" xmlns="http://www.w3.org/2000/svg" xmlns:xlink="http://www.w3.org/1999/xlink" x="0px" y="0px"
	 viewBox="39.4 275.8 334.8 242.8" style="enable-background:new 39.4 275.8 334.8 242.8;" xml:space="preserve">
<path style="fill:#FFFFFF;" d="M50.6,287.8c-0.4,0.4-0.8,0.8-1.2,1.2c-0.4,0.8-1.2,1.2-1.6,2c-0.4,0.4-0.4,0.4-0.8,0.8
	c0,0,0,0.4-0.4,0.4c-4.4,6.4-7.2,14-7.2,22.4v164.8c0,10.4,4,20,10.8,26.8c0,0.4,0.4,0.4,0.4,0.8c7.2,7.2,16.8,11.6,27.6,11.6H335
	c10.8,0,20.4-4.4,27.6-11.6s11.6-16.8,11.6-27.6V314.6c0-10.8-4.4-20.4-11.6-27.6c-4-4-8.8-6.8-14-8.8c0,0,0,0-0.4,0
	c-1.2-0.4-2.4-0.8-3.6-1.2c-0.4,0-0.4,0-0.8,0c-1.2-0.4-2.4-0.4-3.6-0.8c-0.4,0-0.8,0-0.8,0c-1.6,0-2.8-0.4-4.4-0.4H79l0,0
	c-1.6,0-2.8,0-4.4,0.4c-0.4,0-0.8,0-0.8,0c-1.2,0-2.4,0.4-3.6,0.8c-0.4,0-0.4,0-0.8,0c-1.2,0.4-2.4,0.8-3.6,1.2c0,0,0,0-0.4,0
	c-5.2,2-10,5.2-14,8.8l0,0l0,0C51,287,51,287.4,50.6,287.8z M348.2,492.6c-3.2,3.2-8,5.6-13.2,5.6H79c-5.2,0-9.6-2-13.2-5.6
	l-0.4-0.4c-3.2-3.2-5.2-7.6-5.2-12.8V315l59.2,48l37.2,30.4L98.2,449c-4,4-4.4,10.4-0.4,14.4s10.4,4.4,14.4,0.4l60.4-57.6l14.8,12
	c6,4.8,12.8,7.2,19.6,6.8c7.2,0,14-2.4,19.6-7.2l0.4-0.4l14.4-11.6l60.8,58c4,4,10.4,3.6,14.4-0.4s3.6-10.4-0.4-14.4l-58.8-56
	l37.2-30l59.2-48v164.4C353.8,484.6,351.8,489,348.2,492.6z M335,295.8c1.2,0,2.4,0,3.6,0.4s2.4,0.8,3.6,1.2L281.8,347l-67.6,54.8
	l-0.4,0.4c-2,1.6-4.4,2.4-6.8,2.4s-4.8-0.8-6.8-2.4l-68-55.2l-60.8-49.6c1.2-0.4,2.4-0.8,3.6-1.2s2.4-0.4,3.6-0.4H335z"/>
</svg>
