<?xml version="1.0" encoding="utf-8"?>
<!-- Generator: Adobe Illustrator 21.1.0, SVG Export Plug-In . SVG Version: 6.00 Build 0)  -->
<svg version="1.1" id="Layer_1" xmlns="http://www.w3.org/2000/svg" xmlns:xlink="http://www.w3.org/1999/xlink" x="0px" y="0px"
	 viewBox="0 0 1417.3 736" style="enable-background:new 0 0 1417.3 736;" xml:space="preserve">
<style type="text/css">
	.st0{fill:#FFFFFF;}
</style>
<g>
	<path class="st0" d="M175.5,268.6h107.4V313c-23.4,16.3-53.8,26-83.5,26c-72.5,0-121.1-51.5-121.1-128.2
		c0-72.5,49.6-127.1,115.6-127.1c44.9,0,70.7,14.2,95.3,35.7l13.9,12.1l12.1-14.2l25.7-30.2l11.8-14.2l-14.2-11.8
		c-42.6-36-85.4-51.2-143.4-51.2c-55.2,0-105.3,21.5-141.6,60.9c-34.7,37.3-53.6,86.9-53.6,140c0,55.2,18.9,105.6,53.1,142.1
		c36.2,38.3,86.2,58.8,144.7,58.8c76.7,0,129.2-36.8,153.9-58.6l6-5.5V196H175.5V268.6z"/>
	<path class="st0" d="M800.6,325.1c-31.8,0-62,7.1-88.8,20.2l-68.3-91.4c52.5-18.4,83.3-59.4,83.3-113.7c0-32.8-11.6-62.5-32.6-83.5
		C667.9,30.4,627.7,16,581,16H411.1v389.5h76.7V268.4h73l91.1,122.9C619.6,428.1,602,475.6,602,526c0,53.6,19.4,103.5,54.4,140.8
		c36.5,38.9,87.5,60.1,143.4,60.1c55.7,0,106.9-21.5,143.7-60.4c35.5-37.3,54.9-87.2,54.9-140.3c0-53.6-19.4-103.5-54.4-140.8
		C907.2,346.7,856.5,325.1,800.6,325.1z M577.3,195.9h-89.8V89.5h90.4c26.8,0,71.7,6.6,71.7,51.2
		C649.8,181.4,612.3,195.9,577.3,195.9z M799.5,398.7c68.8,0,120.6,54.6,120.6,127.1c0,27.3-7.4,52-20,72.5l-142.9-192
		C770.4,401.6,784.6,398.7,799.5,398.7z M680,526.1c0-26.8,7.1-51,19.2-70.9l142.1,191.2c-12.6,4.5-26.3,7.1-40.7,7.1
		C731.8,653.2,680,598.5,680,526.1z"/>
	<polygon class="st0" points="1348.8,331.2 1230,509 1111.3,331.2 1042.8,331.2 1042.8,720.7 1118.4,720.7 1118.4,476.7 1218.7,624 
		1240.3,624 1245.8,615.9 1340.6,476.4 1340.6,720.7 1417.3,720.7 1417.3,331.2 	"/>
</g>
</svg>
