<?xml version="1.0" encoding="utf-8"?>
<!-- Generator: Adobe Illustrator 21.0.0, SVG Export Plug-In . SVG Version: 6.00 Build 0)  -->
<svg version="1.1" id="Layer_1" xmlns="http://www.w3.org/2000/svg" xmlns:xlink="http://www.w3.org/1999/xlink" x="0px" y="0px"
	 viewBox="0 0 539.6 272.9" style="enable-background:new 0 0 539.6 272.9;" xml:space="preserve">
<g>
	<path d="M66.8,98.5h40.9v16.9c-8.9,6.2-20.5,9.9-31.8,9.9c-27.6,0-46.1-19.6-46.1-48.8c0-27.6,18.9-48.4,44-48.4
		c17.1,0,26.9,5.4,36.3,13.6l5.3,4.6l4.6-5.4l9.8-11.5l4.5-5.4l-5.4-4.5C112.7,5.8,96.4,0,74.3,0c-21,0-40.1,8.2-53.9,23.2
		C7.2,37.4,0,56.3,0,76.5c0,21,7.2,40.2,20.2,54.1c13.8,14.6,32.8,22.4,55.1,22.4c29.2,0,49.2-14,58.6-22.3l2.3-2.1V70.9H66.8V98.5z
		"/>
	<path d="M304.8,120c-12.1,0-23.6,2.7-33.8,7.7L245,92.9c20-7,31.7-22.6,31.7-43.3c0-12.5-4.4-23.8-12.4-31.8
		c-10-10-25.3-15.5-43.1-15.5h-64.7v148.3h29.2V98.4h27.8l34.7,46.8c-12.3,14-19,32.1-19,51.3c0,20.4,7.4,39.4,20.7,53.6
		c13.9,14.8,33.3,22.9,54.6,22.9c21.2,0,40.7-8.2,54.7-23c13.5-14.2,20.9-33.2,20.9-53.4c0-20.4-7.4-39.4-20.7-53.6
		C345.4,128.2,326.1,120,304.8,120z M219.8,70.8h-34.2V30.3H220c10.2,0,27.3,2.5,27.3,19.5C247.4,65.3,233.1,70.8,219.8,70.8z
		 M304.4,148c26.2,0,45.9,20.8,45.9,48.4c0,10.4-2.8,19.8-7.6,27.6l-54.4-73.1C293.3,149.1,298.7,148,304.4,148z M258.9,196.5
		c0-10.2,2.7-19.4,7.3-27l54.1,72.8c-4.8,1.7-10,2.7-15.5,2.7C278.6,244.9,258.9,224.1,258.9,196.5z"/>
	<polygon points="513.5,122.3 468.3,190 423.1,122.3 397,122.3 397,270.6 425.8,270.6 425.8,177.7 464,233.8 472.2,233.8 
		474.3,230.7 510.4,177.6 510.4,270.6 539.6,270.6 539.6,122.3 	"/>
</g>
</svg>
