<?xml version="1.0" encoding="utf-8"?>
<!-- Generator: Adobe Illustrator 17.1.0, SVG Export Plug-In . SVG Version: 6.00 Build 0)  -->
<!DOCTYPE svg PUBLIC "-//W3C//DTD SVG 1.1//EN" "http://www.w3.org/Graphics/SVG/1.1/DTD/svg11.dtd">
<svg version="1.1" id="Layer_1" xmlns="http://www.w3.org/2000/svg" xmlns:xlink="http://www.w3.org/1999/xlink" x="0px" y="0px"
	 viewBox="0 0 156.7 239.9" enable-background="new 0 0 156.7 239.9" xml:space="preserve">
<g>
	<path fill="#FFFFFF" d="M78.3,0C35.1,0,0,35.1,0,78.3c0,38.1,26.3,87.8,48.3,122.8c1.3,2,3.4,3.2,5.8,3.2c1.3,0,2.5-0.4,3.6-1
		c1.5-1,2.6-2.5,3-4.2c0.4-1.8,0.1-3.6-0.9-5.1C21.6,133.3,13.6,97.6,13.6,78.3c0-35.7,29-64.7,64.7-64.7c35.7,0,64.7,29,64.7,64.7
		c0,59.2-69.4,149.7-70.1,150.6c-1.1,1.4-1.6,3.2-1.4,5c0.2,1.8,1.2,3.4,2.6,4.5c1.2,0.9,2.6,1.4,4.2,1.4c2.1,0,4.1-1,5.4-2.6
		c3-3.9,73-95.2,73-158.9C156.7,35.1,121.5,0,78.3,0z"/>
	<path fill="#FFFFFF" d="M78.3,56c3.8,0,6.8-3.1,6.8-6.8s-3.1-6.8-6.8-6.8c-19.8,0-35.9,16.1-35.9,35.9c0,19.8,16.1,35.9,35.9,35.9
		c19.8,0,35.9-16.1,35.9-35.9c0-7.9-2.5-15.4-7.3-21.7c-1.3-1.7-3.3-2.7-5.4-2.7c-1.5,0-2.9,0.5-4.1,1.4c-3,2.3-3.6,6.5-1.3,9.5
		c3,3.9,4.5,8.6,4.5,13.5c0,12.3-10,22.3-22.3,22.3S56,90.7,56,78.3C56,66,66,56,78.3,56z"/>
</g>
</svg>
