<?xml version="1.0" encoding="utf-8"?>
<!-- Generator: Adobe Illustrator 17.1.0, SVG Export Plug-In . SVG Version: 6.00 Build 0)  -->
<!DOCTYPE svg PUBLIC "-//W3C//DTD SVG 1.1//EN" "http://www.w3.org/Graphics/SVG/1.1/DTD/svg11.dtd">
<svg version="1.1" id="Layer_1" xmlns="http://www.w3.org/2000/svg" xmlns:xlink="http://www.w3.org/1999/xlink" x="0px" y="0px"
	 viewBox="0 0 394.9 394.8" enable-background="new 0 0 394.9 394.8" xml:space="preserve">
<path fill="#FFFFFF" d="M337,57.8C299.7,20.5,250.1,0,197.4,0C144.7,0,95.1,20.5,57.8,57.8C20.5,95.1,0,144.7,0,197.4
	C0,250.1,20.5,299.7,57.8,337c37.3,37.3,86.9,57.8,139.6,57.8c30.5,0,58.5-5.7,80.8-16.4c21.3-10.3,36.9-25.1,43.9-41.8
	c8.1-19.7,4-40.1-11.4-56.5c11.2-12.9,10.7-29.3-1.4-41.4l-27.6-27.6c-6.1-6.2-13.4-9.6-21.1-9.6c-7.8,0-15.1,3.3-21.3,9.4
	l-12.9,12.9c-0.1,0-0.1-0.1-0.2-0.1l0,0c-1.7-0.8-3.1-1.6-4.4-2.4c-14.3-9-27.3-20.9-39.9-36.4c-4.7-5.9-8.2-11.2-11-16.4
	c3-2.9,5.9-5.9,8.7-8.7c0.9-0.9,1.8-1.8,2.7-2.7c0.5-0.5,1-1,1.5-1.5c12.8-12.8,12.8-30.1,0-43L170.1,99c-1.7-1.7-3.1-3.1-4.6-4.7
	c-2.9-3-6.1-6.3-9.6-9.5c-6-5.9-13.2-9-20.9-9c-7.7,0-15,3.1-21.1,9l-17.4,17.4c-7.5,7.5-11.7,16.6-12.6,27
	c-1.3,15.9,3.3,30.3,6.8,39.8c8.4,22.6,20.9,43.6,39.4,65.8c22.6,27,49.7,48.2,80.7,63.2c12,5.7,28.1,12.4,46.4,13.6
	c1.2,0.1,2.4,0.1,3.6,0.1c12.8,0,23.7-4.5,32.3-13.3c8.1,9,10,18.6,5.8,28.8c-8.9,21.1-43.7,42.4-101.4,42.4
	c-95,0-172.2-77.3-172.2-172.2c0-95,77.2-172.2,172.2-172.2c95,0,172.2,77.2,172.2,172.2c0,15.5-2.1,30.9-6.2,45.9
	c-0.9,3.2-0.5,6.7,1.2,9.6c1.7,2.9,4.4,5,7.6,5.9c1.1,0.3,2.2,0.5,3.4,0.5c5.6,0,10.6-3.8,12.2-9.3c4.7-17.2,7.1-34.9,7.1-52.6
	C394.8,144.7,374.2,95.1,337,57.8z M161.7,142c-0.9,0.9-1.8,1.8-2.6,2.6c-3.2,3.3-6.3,6.3-9.6,9.3c-0.4,0.3-0.6,0.5-0.7,0.7
	c-4.7,4.7-6.1,10.5-4,17.2l0,0.2c0.1,0.2,0.1,0.3,0.2,0.5l0.1,0.4c3.8,9.1,9,17.7,17.1,27.8l0.2,0.3c14.2,17.5,29.2,31.1,45.9,41.7
	c2.3,1.4,4.6,2.6,6.7,3.7l0.2,0.1c1.7,0.8,3.1,1.5,4.2,2.3c0.4,0.3,0.8,0.5,1.2,0.7c2.4,1.2,5,1.8,7.6,1.8c4.4,0,8.4-1.8,11.7-5.2
	l17.2-17.2c1.8-1.8,3-2.1,3.5-2.1c0.8,0,1.9,0.7,3.1,1.9l27.8,27.8c2.4,2.4,3,4.2-0.2,7.6l-0.1,0.1c-1.7,1.9-3.6,3.7-5.6,5.6
	l-0.3,0.3c-3.1,3-6.6,6.4-9.9,10.3c-4,4.2-8.3,6-14.6,6c-0.7,0-1.3,0-1.8-0.1l-0.1,0c-14.2-0.9-28-6.9-37.1-11.2
	c-27.7-13.4-52-32.5-72.2-56.6c-16.6-20-27.8-38.5-35.2-58.4c-4.3-11.7-6-20.6-5.3-28.9c0.4-4.6,2.1-8.1,5.3-11.3l17.1-17.1
	c1.3-1.3,2.7-2,3.6-2c1.4,0,2.7,1.2,3.2,1.8l0.3,0.3c3,2.7,5.8,5.7,8.9,8.8c0.8,0.8,1.6,1.6,2.3,2.4c0.8,0.8,1.6,1.7,2.5,2.5
	l13.7,13.7c3.1,3.1,3.1,4.3,0,7.4L161.7,142z"/>
</svg>
